%
M48
M72
T01C0.0150
T02C0.0256
T03C0.0400
T04C0.1300
%
T01
X5975Y3850
X6975Y5600
X5831Y7594
X6875Y9100
X6025Y9600
X7225Y10800
X5975Y12550
X6975Y14300
X5831Y16294
X6875Y17800
X6025Y18300
X7225Y19500
X5975Y21250
X6975Y23000
X5831Y24994
X6875Y26500
X6025Y27000
X7225Y28200
X5975Y29950
X6975Y31700
X5831Y33694
X6875Y35200
X6025Y35700
X7225Y36900
X5975Y38650
X6975Y40400
X5831Y42394
X6875Y43900
X6025Y44400
X7225Y45600
X12225Y44400
X13075Y43900
X12031Y42394
X13175Y40400
X12175Y38650
X13425Y36900
X12225Y35700
X13075Y35200
X12031Y33694
X13175Y31700
X12175Y29950
X13425Y28200
X12225Y27000
X13075Y26500
X12031Y24994
X13175Y23000
X12175Y21250
X13425Y19500
X12225Y18300
X13075Y17800
X12031Y16294
X13175Y14300
X12175Y12550
X13425Y10800
X12225Y9600
X13075Y9100
X12031Y7594
X13175Y5600
X12175Y3850
X18375Y3850
X19375Y5600
X18231Y7594
X19275Y9100
X18425Y9600
X19625Y10800
X18375Y12550
X19375Y14300
X18231Y16294
X19275Y17800
X18425Y18300
X19625Y19500
X18375Y21250
X19375Y23000
X24575Y21250
X25575Y23000
X24431Y24994
X25475Y26500
X24625Y27000
X25825Y28200
X24575Y29950
X25575Y31700
X24431Y33694
X25475Y35200
X24625Y35700
X25825Y36900
X24575Y38650
X25575Y40400
X24431Y42394
X25475Y43900
X24625Y44400
X25825Y45600
X30825Y44400
X31675Y43900
X30631Y42394
X31775Y40400
X30775Y38650
X32025Y36900
X30825Y35700
X31675Y35200
X30631Y33694
X31775Y31700
X30775Y29950
X32025Y28200
X30825Y27000
X31675Y26500
X30631Y24994
X31775Y23000
X30775Y21250
X32025Y19500
X30825Y18300
X31675Y17800
X30631Y16294
X31775Y14300
X30775Y12550
X32025Y10800
X30825Y9600
X31675Y9100
X30631Y7594
X31775Y5600
X30775Y3850
X25575Y5600
X24575Y3850
X24431Y7594
X25475Y9100
X24625Y9600
X25825Y10800
X24575Y12550
X25575Y14300
X24431Y16294
X25475Y17800
X24625Y18300
X25825Y19500
X37025Y18300
X37875Y17800
X38225Y19500
X36975Y21250
X37975Y23000
X36831Y24994
X37875Y26500
X37025Y27000
X38225Y28200
X36975Y29950
X37975Y31700
X36831Y33694
X37875Y35200
X37025Y35700
X38225Y36900
X36975Y38650
X37975Y40400
X36831Y42394
X37875Y43900
X37025Y44400
X38225Y45600
X43225Y44400
X44075Y43900
X43031Y42394
X44175Y40400
X43175Y38650
X44425Y36900
X43225Y35700
X44075Y35200
X43031Y33694
X44175Y31700
X43175Y29950
X44425Y28200
X43225Y27000
X44075Y26500
X43031Y24994
X44175Y23000
X43175Y21250
X44425Y19500
X43225Y18300
X44075Y17800
X43031Y16294
X44175Y14300
X43175Y12550
X44425Y10800
X43225Y9600
X44075Y9100
X43031Y7594
X44175Y5600
X43175Y3850
X37975Y5600
X36975Y3850
X36831Y7594
X37875Y9100
X37025Y9600
X38225Y10800
X36975Y12550
X37975Y14300
X36831Y16294
X49231Y16294
X50275Y17800
X49425Y18300
X50625Y19500
X49375Y21250
X50375Y23000
X55575Y21250
X56575Y23000
X55431Y24994
X56475Y26500
X55625Y27000
X56825Y28200
X55575Y29950
X56575Y31700
X55431Y33694
X56475Y35200
X55625Y35700
X56825Y36900
X55575Y38650
X56575Y40400
X55431Y42394
X56475Y43900
X55625Y44400
X56825Y45600
X61825Y44400
X62675Y43900
X61631Y42394
X62775Y40400
X61775Y38650
X63025Y36900
X61825Y35700
X62675Y35200
X61631Y33694
X62775Y31700
X61775Y29950
X63025Y28200
X61825Y27000
X62675Y26500
X61631Y24994
X62775Y23000
X61775Y21250
X63025Y19500
X61825Y18300
X62675Y17800
X61631Y16294
X62775Y14300
X61775Y12550
X63025Y10800
X61825Y9600
X62675Y9100
X61631Y7594
X62775Y5600
X61775Y3850
X56575Y5600
X55575Y3850
X50375Y5600
X49375Y3850
X49231Y7594
X50275Y9100
X49425Y9600
X50625Y10800
X49375Y12550
X50375Y14300
X55431Y16294
X56475Y17800
X55625Y18300
X56825Y19500
X56575Y14300
X55575Y12550
X56825Y10800
X55625Y9600
X56475Y9100
X55431Y7594
X67831Y7594
X68875Y9100
X68025Y9600
X69225Y10800
X67975Y12550
X68975Y14300
X67831Y16294
X68875Y17800
X68025Y18300
X69225Y19500
X67975Y21250
X68975Y23000
X67831Y24994
X68875Y26500
X68025Y27000
X69225Y28200
X67975Y29950
X68975Y31700
X67831Y33694
X68875Y35200
X68025Y35700
X69225Y36900
X67975Y38650
X68975Y40400
X67831Y42394
X68875Y43900
X68025Y44400
X69225Y45600
X74225Y44400
X75075Y43900
X74031Y42394
X75175Y40400
X74175Y38650
X75425Y36900
X74225Y35700
X75075Y35200
X74031Y33694
X75175Y31700
X74175Y29950
X75425Y28200
X74225Y27000
X75075Y26500
X74031Y24994
X75175Y23000
X74175Y21250
X75425Y19500
X74225Y18300
X75075Y17800
X74031Y16294
X75175Y14300
X74175Y12550
X75425Y10800
X74225Y9600
X75075Y9100
X74031Y7594
X75175Y5600
X74175Y3850
X68975Y5600
X67975Y3850
X80231Y7594
X81275Y9100
X80425Y9600
X81625Y10800
X80375Y12550
X81375Y14300
X80231Y16294
X81275Y17800
X80425Y18300
X81625Y19500
X80375Y21250
X81375Y23000
X86575Y21250
X87575Y23000
X86431Y24994
X87475Y26500
X86625Y27000
X87825Y28200
X86575Y29950
X87575Y31700
X86431Y33694
X87475Y35200
X86625Y35700
X87825Y36900
X86575Y38650
X87575Y40400
X86431Y42394
X87475Y43900
X86625Y44400
X87825Y45600
X92825Y44400
X93675Y43900
X92631Y42394
X93775Y40400
X92775Y38650
X94025Y36900
X92825Y35700
X93675Y35200
X92631Y33694
X93775Y31700
X92775Y29950
X94025Y28200
X92825Y27000
X93675Y26500
X92631Y24994
X93775Y23000
X92775Y21250
X94025Y19500
X92825Y18300
X93675Y17800
X92631Y16294
X93775Y14300
X92775Y12550
X94025Y10800
X92825Y9600
X93675Y9100
X92631Y7594
X93775Y5600
X92775Y3850
X87575Y5600
X86575Y3850
X81375Y5600
X80375Y3850
X86431Y7594
X87475Y9100
X86625Y9600
X87825Y10800
X86575Y12550
X87575Y14300
X86431Y16294
X87475Y17800
X86625Y18300
X87825Y19500
X80231Y24994
X81275Y26500
X80425Y27000
X81625Y28200
X80375Y29950
X81375Y31700
X80231Y33694
X81275Y35200
X80425Y35700
X81625Y36900
X80375Y38650
X81375Y40400
X80231Y42394
X81275Y43900
X80425Y44400
X81625Y45600
X75425Y45600
X63025Y45600
X50625Y45600
X49425Y44400
X50275Y43900
X49231Y42394
X50375Y40400
X49375Y38650
X50625Y36900
X49425Y35700
X50275Y35200
X49231Y33694
X50375Y31700
X49375Y29950
X50625Y28200
X49425Y27000
X50275Y26500
X49231Y24994
X19625Y28200
X18425Y27000
X19275Y26500
X18231Y24994
X18375Y29950
X19375Y31700
X18231Y33694
X19275Y35200
X18425Y35700
X19625Y36900
X18375Y38650
X19375Y40400
X18231Y42394
X19275Y43900
X18425Y44400
X19625Y45600
X13425Y45600
X32025Y45600
X44425Y45600
X94025Y45600
T02
X92606Y43038
X92606Y40762
X86406Y40762
X86406Y43038
X80206Y43038
X80206Y40762
X74006Y40762
X74006Y43038
X67806Y43038
X67806Y40762
X61606Y40762
X61606Y43038
X55406Y43038
X55406Y40762
X49206Y40762
X49206Y43038
X43006Y43038
X43006Y40762
X36806Y40762
X36806Y43038
X30606Y43038
X30606Y40762
X24406Y40762
X24406Y43038
X18206Y43038
X18206Y40762
X12006Y40762
X12006Y43038
X5806Y43038
X5806Y40762
X5806Y34338
X5806Y32062
X12006Y32062
X12006Y34338
X18206Y34338
X18206Y32062
X24406Y32062
X24406Y34338
X30606Y34338
X30606Y32062
X36806Y32062
X36806Y34338
X43006Y34338
X43006Y32062
X49206Y32062
X49206Y34338
X55406Y34338
X55406Y32062
X61606Y32062
X61606Y34338
X67806Y34338
X67806Y32062
X74006Y32062
X74006Y34338
X80206Y34338
X80206Y32062
X86406Y32062
X86406Y34338
X92606Y34338
X92606Y32062
X92606Y25638
X92606Y23362
X86406Y23362
X86406Y25638
X80206Y25638
X80206Y23362
X74006Y23362
X74006Y25638
X67806Y25638
X67806Y23362
X61606Y23362
X61606Y25638
X55406Y25638
X55406Y23362
X49206Y23362
X49206Y25638
X43006Y25638
X43006Y23362
X36806Y23362
X36806Y25638
X30606Y25638
X30606Y23362
X24406Y23362
X24406Y25638
X18206Y25638
X18206Y23362
X12006Y23362
X12006Y25638
X5806Y25638
X5806Y23362
X5806Y16938
X5806Y14662
X12006Y14662
X12006Y16938
X18206Y16938
X18206Y14662
X24406Y14662
X24406Y16938
X30606Y16938
X30606Y14662
X36806Y14662
X36806Y16938
X43006Y16938
X43006Y14662
X49206Y14662
X49206Y16938
X55406Y16938
X55406Y14662
X61606Y14662
X61606Y16938
X67806Y16938
X67806Y14662
X74006Y14662
X74006Y16938
X80206Y16938
X80206Y14662
X86406Y14662
X86406Y16938
X92606Y16938
X92606Y14662
X92606Y8238
X92606Y5962
X86406Y5962
X86406Y8238
X80206Y8238
X80206Y5962
X74006Y5962
X74006Y8238
X67806Y8238
X67806Y5962
X61606Y5962
X61606Y8238
X55406Y8238
X55406Y5962
X49206Y5962
X49206Y8238
X43006Y8238
X43006Y5962
X36806Y5962
X36806Y8238
X30606Y8238
X30606Y5962
X24406Y5962
X24406Y8238
X18206Y8238
X18206Y5962
X12006Y5962
X12006Y8238
X5806Y8238
X5806Y5962
T03
X8375Y5600
X8375Y4600
X8375Y6600
X8375Y7600
X8375Y8600
X8375Y9600
X14575Y9600
X14575Y8600
X14575Y7600
X14575Y6600
X14575Y5600
X14575Y4600
X20775Y4600
X20775Y5600
X20775Y6600
X20775Y7600
X20775Y8600
X20775Y9600
X26975Y9600
X26975Y8600
X26975Y7600
X26975Y6600
X26975Y5600
X26975Y4600
X33175Y4600
X33175Y5600
X33175Y6600
X33175Y7600
X33175Y8600
X33175Y9600
X39375Y9600
X39375Y8600
X39375Y7600
X39375Y6600
X39375Y5600
X39375Y4600
X45575Y4600
X45575Y5600
X45575Y6600
X45575Y7600
X45575Y8600
X45575Y9600
X51775Y9600
X51775Y8600
X51775Y7600
X51775Y6600
X51775Y5600
X51775Y4600
X57975Y4600
X57975Y5600
X57975Y6600
X57975Y7600
X57975Y8600
X57975Y9600
X64175Y9600
X64175Y8600
X64175Y7600
X64175Y6600
X64175Y5600
X64175Y4600
X70375Y4600
X70375Y5600
X70375Y6600
X70375Y7600
X70375Y8600
X70375Y9600
X76575Y9600
X76575Y8600
X76575Y7600
X76575Y6600
X76575Y5600
X76575Y4600
X82775Y4600
X82775Y5600
X82775Y6600
X82775Y7600
X82775Y8600
X82775Y9600
X88975Y9600
X88975Y8600
X88975Y7600
X88975Y6600
X88975Y5600
X88975Y4600
X95175Y4600
X95175Y5600
X95175Y6600
X95175Y7600
X95175Y8600
X95175Y9600
X95175Y13300
X95175Y14300
X95175Y15300
X95175Y16300
X95175Y17300
X95175Y18300
X88975Y18300
X88975Y17300
X88975Y16300
X88975Y15300
X88975Y14300
X88975Y13300
X82775Y13300
X82775Y14300
X82775Y15300
X82775Y16300
X82775Y17300
X82775Y18300
X76575Y18300
X76575Y17300
X76575Y16300
X76575Y15300
X76575Y14300
X76575Y13300
X70375Y13300
X70375Y14300
X70375Y15300
X70375Y16300
X70375Y17300
X70375Y18300
X64175Y18300
X64175Y17300
X64175Y16300
X64175Y15300
X64175Y14300
X64175Y13300
X57975Y13300
X57975Y14300
X57975Y15300
X57975Y16300
X57975Y17300
X57975Y18300
X51775Y18300
X51775Y17300
X51775Y16300
X51775Y15300
X51775Y14300
X51775Y13300
X45575Y13300
X45575Y14300
X45575Y15300
X45575Y16300
X45575Y17300
X45575Y18300
X39375Y18300
X39375Y17300
X39375Y16300
X39375Y15300
X39375Y14300
X39375Y13300
X33175Y13300
X33175Y14300
X33175Y15300
X33175Y16300
X33175Y17300
X33175Y18300
X26975Y18300
X26975Y17300
X26975Y16300
X26975Y15300
X26975Y14300
X26975Y13300
X20775Y13300
X20775Y14300
X20775Y15300
X20775Y16300
X20775Y17300
X20775Y18300
X14575Y18300
X14575Y17300
X14575Y16300
X14575Y15300
X14575Y14300
X14575Y13300
X8375Y13300
X8375Y14300
X8375Y15300
X8375Y16300
X8375Y17300
X8375Y18300
X8375Y22000
X8375Y23000
X8375Y24000
X8375Y25000
X8375Y26000
X8375Y27000
X14575Y27000
X14575Y26000
X14575Y25000
X14575Y24000
X14575Y23000
X14575Y22000
X20775Y22000
X20775Y23000
X20775Y24000
X20775Y25000
X20775Y26000
X20775Y27000
X26975Y27000
X26975Y26000
X26975Y25000
X26975Y24000
X26975Y23000
X26975Y22000
X33175Y22000
X33175Y23000
X33175Y24000
X33175Y25000
X33175Y26000
X33175Y27000
X39375Y27000
X39375Y26000
X39375Y25000
X39375Y24000
X39375Y23000
X39375Y22000
X45575Y22000
X45575Y23000
X45575Y24000
X45575Y25000
X45575Y26000
X45575Y27000
X51775Y27000
X51775Y26000
X51775Y25000
X51775Y24000
X51775Y23000
X51775Y22000
X57975Y22000
X57975Y23000
X57975Y24000
X57975Y25000
X57975Y26000
X57975Y27000
X64175Y27000
X64175Y26000
X64175Y25000
X64175Y24000
X64175Y23000
X64175Y22000
X70375Y22000
X70375Y23000
X70375Y24000
X70375Y25000
X70375Y26000
X70375Y27000
X76575Y27000
X76575Y26000
X76575Y25000
X76575Y24000
X76575Y23000
X76575Y22000
X82775Y22000
X82775Y23000
X82775Y24000
X82775Y25000
X82775Y26000
X82775Y27000
X88975Y27000
X88975Y26000
X88975Y25000
X88975Y24000
X88975Y23000
X88975Y22000
X95175Y22000
X95175Y23000
X95175Y24000
X95175Y25000
X95175Y26000
X95175Y27000
X95175Y30700
X95175Y31700
X95175Y32700
X95175Y33700
X95175Y34700
X95175Y35700
X88975Y35700
X88975Y34700
X88975Y33700
X88975Y32700
X88975Y31700
X88975Y30700
X82775Y30700
X82775Y31700
X82775Y32700
X82775Y33700
X82775Y34700
X82775Y35700
X76575Y35700
X76575Y34700
X76575Y33700
X76575Y32700
X76575Y31700
X76575Y30700
X70375Y30700
X70375Y31700
X70375Y32700
X70375Y33700
X70375Y34700
X70375Y35700
X64175Y35700
X64175Y34700
X64175Y33700
X64175Y32700
X64175Y31700
X64175Y30700
X57975Y30700
X57975Y31700
X57975Y32700
X57975Y33700
X57975Y34700
X57975Y35700
X51775Y35700
X51775Y34700
X51775Y33700
X51775Y32700
X51775Y31700
X51775Y30700
X45575Y30700
X45575Y31700
X45575Y32700
X45575Y33700
X45575Y34700
X45575Y35700
X39375Y35700
X39375Y34700
X39375Y33700
X39375Y32700
X39375Y31700
X39375Y30700
X33175Y30700
X33175Y31700
X33175Y32700
X33175Y33700
X33175Y34700
X33175Y35700
X26975Y35700
X26975Y34700
X26975Y33700
X26975Y32700
X26975Y31700
X26975Y30700
X20775Y30700
X20775Y31700
X20775Y32700
X20775Y33700
X20775Y34700
X20775Y35700
X14575Y35700
X14575Y34700
X14575Y33700
X14575Y32700
X14575Y31700
X14575Y30700
X8375Y30700
X8375Y31700
X8375Y32700
X8375Y33700
X8375Y34700
X8375Y35700
X8375Y39400
X8375Y40400
X8375Y41400
X8375Y42400
X8375Y43400
X8375Y44400
X14575Y44400
X14575Y43400
X14575Y42400
X14575Y41400
X14575Y40400
X14575Y39400
X20775Y39400
X20775Y40400
X20775Y41400
X20775Y42400
X20775Y43400
X20775Y44400
X26975Y44400
X26975Y43400
X26975Y42400
X26975Y41400
X26975Y40400
X26975Y39400
X33175Y39400
X33175Y40400
X33175Y41400
X33175Y42400
X33175Y43400
X33175Y44400
X39375Y44400
X39375Y43400
X39375Y42400
X39375Y41400
X39375Y40400
X39375Y39400
X45575Y39400
X45575Y40400
X45575Y41400
X45575Y42400
X45575Y43400
X45575Y44400
X51775Y44400
X51775Y43400
X51775Y42400
X51775Y41400
X51775Y40400
X51775Y39400
X57975Y39400
X57975Y40400
X57975Y41400
X57975Y42400
X57975Y43400
X57975Y44400
X64175Y44400
X64175Y43400
X64175Y42400
X64175Y41400
X64175Y40400
X64175Y39400
X70375Y39400
X70375Y40400
X70375Y41400
X70375Y42400
X70375Y43400
X70375Y44400
X76575Y44400
X76575Y43400
X76575Y42400
X76575Y41400
X76575Y40400
X76575Y39400
X82775Y39400
X82775Y40400
X82775Y41400
X82775Y42400
X82775Y43400
X82775Y44400
X88975Y44400
X88975Y43400
X88975Y42400
X88975Y41400
X88975Y40400
X88975Y39400
X95175Y39400
X95175Y40400
X95175Y41400
X95175Y42400
X95175Y43400
X95175Y44400
T04
X4875Y3850
X11075Y3850
X17275Y3850
X23475Y3850
X29675Y3850
X35875Y3850
X42075Y3850
X48275Y3850
X54475Y3850
X60675Y3850
X66875Y3850
X73075Y3850
X79275Y3850
X85475Y3850
X91675Y3850
X91675Y10350
X91675Y12550
X85475Y12550
X85475Y10350
X79275Y10350
X79275Y12550
X73075Y12550
X73075Y10350
X66875Y10350
X66875Y12550
X60675Y12550
X60675Y10350
X54475Y10350
X54475Y12550
X48275Y12550
X48275Y10350
X42075Y10350
X42075Y12550
X35875Y12550
X35875Y10350
X29675Y10350
X29675Y12550
X23475Y12550
X23475Y10350
X17275Y10350
X17275Y12550
X11075Y12550
X11075Y10350
X4875Y10350
X4875Y12550
X4875Y19050
X4875Y21250
X11075Y21250
X11075Y19050
X17275Y19050
X17275Y21250
X23475Y21250
X23475Y19050
X29675Y19050
X29675Y21250
X35875Y21250
X35875Y19050
X42075Y19050
X42075Y21250
X48275Y21250
X48275Y19050
X54475Y19050
X54475Y21250
X60675Y21250
X60675Y19050
X66875Y19050
X66875Y21250
X73075Y21250
X73075Y19050
X79275Y19050
X79275Y21250
X85475Y21250
X85475Y19050
X91675Y19050
X91675Y21250
X91675Y27750
X91675Y29950
X85475Y29950
X85475Y27750
X79275Y27750
X79275Y29950
X73075Y29950
X73075Y27750
X66875Y27750
X66875Y29950
X60675Y29950
X60675Y27750
X54475Y27750
X54475Y29950
X48275Y29950
X48275Y27750
X42075Y27750
X42075Y29950
X35875Y29950
X35875Y27750
X29675Y27750
X29675Y29950
X23475Y29950
X23475Y27750
X17275Y27750
X17275Y29950
X11075Y29950
X11075Y27750
X4875Y27750
X4875Y29950
X4875Y36450
X4875Y38650
X11075Y38650
X11075Y36450
X17275Y36450
X17275Y38650
X23475Y38650
X23475Y36450
X29675Y36450
X29675Y38650
X35875Y38650
X35875Y36450
X42075Y36450
X42075Y38650
X48275Y38650
X48275Y36450
X54475Y36450
X54475Y38650
X60675Y38650
X60675Y36450
X66875Y36450
X66875Y38650
X73075Y38650
X73075Y36450
X79275Y36450
X79275Y38650
X85475Y38650
X85475Y36450
X91675Y36450
X91675Y38650
X91675Y45150
X85475Y45150
X79275Y45150
X73075Y45150
X66875Y45150
X60675Y45150
X54475Y45150
X48275Y45150
X42075Y45150
X35875Y45150
X29675Y45150
X23475Y45150
X17275Y45150
X11075Y45150
X4875Y45150
M30
