G75*
%MOIN*%
%OFA0B0*%
%FSLAX25Y25*%
%IPPOS*%
%LPD*%
%AMOC8*
5,1,8,0,0,1.08239X$1,22.5*
%
%ADD10C,0.04737*%
%ADD11C,0.03359*%
%ADD12C,0.13800*%
%ADD13C,0.08200*%
D10*
X0085250Y0032000D03*
X0147250Y0032000D03*
X0209250Y0032000D03*
X0271250Y0032000D03*
X0333250Y0032000D03*
X0395250Y0032000D03*
X0457250Y0032000D03*
X0519250Y0032000D03*
X0581250Y0032000D03*
X0643250Y0032000D03*
X0705250Y0032000D03*
X0767250Y0032000D03*
X0829250Y0032000D03*
X0891250Y0032000D03*
X0953250Y0032000D03*
X0909750Y0110500D03*
X0891250Y0119000D03*
X0847750Y0110500D03*
X0829250Y0119000D03*
X0785750Y0110500D03*
X0767250Y0119000D03*
X0723750Y0110500D03*
X0705250Y0119000D03*
X0661750Y0110500D03*
X0643250Y0119000D03*
X0599750Y0110500D03*
X0581250Y0119000D03*
X0537750Y0110500D03*
X0519250Y0119000D03*
X0475750Y0110500D03*
X0457250Y0119000D03*
X0413750Y0110500D03*
X0395250Y0119000D03*
X0351750Y0110500D03*
X0333250Y0119000D03*
X0289750Y0110500D03*
X0271250Y0119000D03*
X0227750Y0110500D03*
X0209250Y0119000D03*
X0165750Y0110500D03*
X0147250Y0119000D03*
X0103750Y0110500D03*
X0085250Y0119000D03*
X0041750Y0110500D03*
X0041750Y0197500D03*
X0085250Y0206000D03*
X0103750Y0197500D03*
X0147250Y0206000D03*
X0165750Y0197500D03*
X0209250Y0206000D03*
X0227750Y0197500D03*
X0271250Y0206000D03*
X0289750Y0197500D03*
X0333250Y0206000D03*
X0351750Y0197500D03*
X0395250Y0206000D03*
X0413750Y0197500D03*
X0457250Y0206000D03*
X0475750Y0197500D03*
X0519250Y0206000D03*
X0537750Y0197500D03*
X0581250Y0206000D03*
X0599750Y0197500D03*
X0643250Y0206000D03*
X0661750Y0197500D03*
X0705250Y0206000D03*
X0723750Y0197500D03*
X0767250Y0206000D03*
X0785750Y0197500D03*
X0829250Y0206000D03*
X0847750Y0197500D03*
X0891250Y0206000D03*
X0909750Y0197500D03*
X0953250Y0206000D03*
X0909750Y0284500D03*
X0891250Y0293000D03*
X0847750Y0284500D03*
X0829250Y0293000D03*
X0785750Y0284500D03*
X0767250Y0293000D03*
X0723750Y0284500D03*
X0705250Y0293000D03*
X0661750Y0284500D03*
X0643250Y0293000D03*
X0599750Y0284500D03*
X0581250Y0293000D03*
X0537750Y0284500D03*
X0519250Y0293000D03*
X0475750Y0284500D03*
X0457250Y0293000D03*
X0413750Y0284500D03*
X0395250Y0293000D03*
X0351750Y0284500D03*
X0333250Y0293000D03*
X0289750Y0284500D03*
X0271250Y0293000D03*
X0227750Y0284500D03*
X0209250Y0293000D03*
X0165750Y0284500D03*
X0147250Y0293000D03*
X0103750Y0284500D03*
X0085250Y0293000D03*
X0041750Y0284500D03*
X0041750Y0371500D03*
X0085250Y0380000D03*
X0103750Y0371500D03*
X0147250Y0380000D03*
X0165750Y0371500D03*
X0209250Y0380000D03*
X0227750Y0371500D03*
X0271250Y0380000D03*
X0289750Y0371500D03*
X0333250Y0380000D03*
X0351750Y0371500D03*
X0395250Y0380000D03*
X0413750Y0371500D03*
X0457250Y0380000D03*
X0475750Y0371500D03*
X0519250Y0380000D03*
X0537750Y0371500D03*
X0581250Y0380000D03*
X0599750Y0371500D03*
X0643250Y0380000D03*
X0661750Y0371500D03*
X0705250Y0380000D03*
X0723750Y0371500D03*
X0767250Y0380000D03*
X0785750Y0371500D03*
X0829250Y0380000D03*
X0847750Y0371500D03*
X0891250Y0380000D03*
X0909750Y0371500D03*
X0953250Y0380000D03*
X0909750Y0458500D03*
X0847750Y0458500D03*
X0785750Y0458500D03*
X0723750Y0458500D03*
X0661750Y0458500D03*
X0599750Y0458500D03*
X0537750Y0458500D03*
X0475750Y0458500D03*
X0413750Y0458500D03*
X0351750Y0458500D03*
X0289750Y0458500D03*
X0227750Y0458500D03*
X0165750Y0458500D03*
X0103750Y0458500D03*
X0041750Y0458500D03*
X0953250Y0293000D03*
X0953250Y0119000D03*
D11*
X0926061Y0146622D03*
X0926061Y0169378D03*
X0864061Y0169378D03*
X0864061Y0146622D03*
X0802061Y0146622D03*
X0802061Y0169378D03*
X0740061Y0169378D03*
X0740061Y0146622D03*
X0678061Y0146622D03*
X0678061Y0169378D03*
X0616061Y0169378D03*
X0616061Y0146622D03*
X0554061Y0146622D03*
X0554061Y0169378D03*
X0492061Y0169378D03*
X0492061Y0146622D03*
X0430061Y0146622D03*
X0430061Y0169378D03*
X0368061Y0169378D03*
X0368061Y0146622D03*
X0306061Y0146622D03*
X0306061Y0169378D03*
X0244061Y0169378D03*
X0244061Y0146622D03*
X0182061Y0146622D03*
X0182061Y0169378D03*
X0120061Y0169378D03*
X0120061Y0146622D03*
X0058061Y0146622D03*
X0058061Y0169378D03*
X0058061Y0233622D03*
X0058061Y0256378D03*
X0120061Y0256378D03*
X0120061Y0233622D03*
X0182061Y0233622D03*
X0182061Y0256378D03*
X0244061Y0256378D03*
X0244061Y0233622D03*
X0306061Y0233622D03*
X0306061Y0256378D03*
X0368061Y0256378D03*
X0368061Y0233622D03*
X0430061Y0233622D03*
X0430061Y0256378D03*
X0492061Y0256378D03*
X0492061Y0233622D03*
X0554061Y0233622D03*
X0554061Y0256378D03*
X0616061Y0256378D03*
X0616061Y0233622D03*
X0678061Y0233622D03*
X0678061Y0256378D03*
X0740061Y0256378D03*
X0740061Y0233622D03*
X0802061Y0233622D03*
X0802061Y0256378D03*
X0864061Y0256378D03*
X0864061Y0233622D03*
X0926061Y0233622D03*
X0926061Y0256378D03*
X0926061Y0320622D03*
X0926061Y0343378D03*
X0864061Y0343378D03*
X0864061Y0320622D03*
X0802061Y0320622D03*
X0802061Y0343378D03*
X0740061Y0343378D03*
X0740061Y0320622D03*
X0678061Y0320622D03*
X0678061Y0343378D03*
X0616061Y0343378D03*
X0616061Y0320622D03*
X0554061Y0320622D03*
X0554061Y0343378D03*
X0492061Y0343378D03*
X0492061Y0320622D03*
X0430061Y0320622D03*
X0430061Y0343378D03*
X0368061Y0343378D03*
X0368061Y0320622D03*
X0306061Y0320622D03*
X0306061Y0343378D03*
X0244061Y0343378D03*
X0244061Y0320622D03*
X0182061Y0320622D03*
X0182061Y0343378D03*
X0120061Y0343378D03*
X0120061Y0320622D03*
X0058061Y0320622D03*
X0058061Y0343378D03*
X0058061Y0407622D03*
X0058061Y0430378D03*
X0120061Y0430378D03*
X0120061Y0407622D03*
X0182061Y0407622D03*
X0182061Y0430378D03*
X0244061Y0430378D03*
X0244061Y0407622D03*
X0306061Y0407622D03*
X0306061Y0430378D03*
X0368061Y0430378D03*
X0368061Y0407622D03*
X0430061Y0407622D03*
X0430061Y0430378D03*
X0492061Y0430378D03*
X0492061Y0407622D03*
X0554061Y0407622D03*
X0554061Y0430378D03*
X0616061Y0430378D03*
X0616061Y0407622D03*
X0678061Y0407622D03*
X0678061Y0430378D03*
X0740061Y0430378D03*
X0740061Y0407622D03*
X0802061Y0407622D03*
X0802061Y0430378D03*
X0864061Y0430378D03*
X0864061Y0407622D03*
X0926061Y0407622D03*
X0926061Y0430378D03*
X0926061Y0082378D03*
X0926061Y0059622D03*
X0864061Y0059622D03*
X0864061Y0082378D03*
X0802061Y0082378D03*
X0802061Y0059622D03*
X0740061Y0059622D03*
X0740061Y0082378D03*
X0678061Y0082378D03*
X0678061Y0059622D03*
X0616061Y0059622D03*
X0616061Y0082378D03*
X0554061Y0082378D03*
X0554061Y0059622D03*
X0492061Y0059622D03*
X0492061Y0082378D03*
X0430061Y0082378D03*
X0430061Y0059622D03*
X0368061Y0059622D03*
X0368061Y0082378D03*
X0306061Y0082378D03*
X0306061Y0059622D03*
X0244061Y0059622D03*
X0244061Y0082378D03*
X0182061Y0082378D03*
X0182061Y0059622D03*
X0120061Y0059622D03*
X0120061Y0082378D03*
X0058061Y0082378D03*
X0058061Y0059622D03*
D12*
X0048750Y0038500D03*
X0110750Y0038500D03*
X0172750Y0038500D03*
X0234750Y0038500D03*
X0296750Y0038500D03*
X0358750Y0038500D03*
X0420750Y0038500D03*
X0482750Y0038500D03*
X0544750Y0038500D03*
X0606750Y0038500D03*
X0668750Y0038500D03*
X0730750Y0038500D03*
X0792750Y0038500D03*
X0854750Y0038500D03*
X0916750Y0038500D03*
X0916750Y0103500D03*
X0916750Y0125500D03*
X0854750Y0125500D03*
X0854750Y0103500D03*
X0792750Y0103500D03*
X0792750Y0125500D03*
X0730750Y0125500D03*
X0730750Y0103500D03*
X0668750Y0103500D03*
X0668750Y0125500D03*
X0606750Y0125500D03*
X0606750Y0103500D03*
X0544750Y0103500D03*
X0544750Y0125500D03*
X0482750Y0125500D03*
X0482750Y0103500D03*
X0420750Y0103500D03*
X0420750Y0125500D03*
X0358750Y0125500D03*
X0358750Y0103500D03*
X0296750Y0103500D03*
X0296750Y0125500D03*
X0234750Y0125500D03*
X0234750Y0103500D03*
X0172750Y0103500D03*
X0172750Y0125500D03*
X0110750Y0125500D03*
X0110750Y0103500D03*
X0048750Y0103500D03*
X0048750Y0125500D03*
X0048750Y0190500D03*
X0048750Y0212500D03*
X0110750Y0212500D03*
X0110750Y0190500D03*
X0172750Y0190500D03*
X0172750Y0212500D03*
X0234750Y0212500D03*
X0234750Y0190500D03*
X0296750Y0190500D03*
X0296750Y0212500D03*
X0358750Y0212500D03*
X0358750Y0190500D03*
X0420750Y0190500D03*
X0420750Y0212500D03*
X0482750Y0212500D03*
X0482750Y0190500D03*
X0544750Y0190500D03*
X0544750Y0212500D03*
X0606750Y0212500D03*
X0606750Y0190500D03*
X0668750Y0190500D03*
X0668750Y0212500D03*
X0730750Y0212500D03*
X0730750Y0190500D03*
X0792750Y0190500D03*
X0792750Y0212500D03*
X0854750Y0212500D03*
X0854750Y0190500D03*
X0916750Y0190500D03*
X0916750Y0212500D03*
X0916750Y0277500D03*
X0916750Y0299500D03*
X0854750Y0299500D03*
X0854750Y0277500D03*
X0792750Y0277500D03*
X0792750Y0299500D03*
X0730750Y0299500D03*
X0730750Y0277500D03*
X0668750Y0277500D03*
X0668750Y0299500D03*
X0606750Y0299500D03*
X0606750Y0277500D03*
X0544750Y0277500D03*
X0544750Y0299500D03*
X0482750Y0299500D03*
X0482750Y0277500D03*
X0420750Y0277500D03*
X0420750Y0299500D03*
X0358750Y0299500D03*
X0358750Y0277500D03*
X0296750Y0277500D03*
X0296750Y0299500D03*
X0234750Y0299500D03*
X0234750Y0277500D03*
X0172750Y0277500D03*
X0172750Y0299500D03*
X0110750Y0299500D03*
X0110750Y0277500D03*
X0048750Y0277500D03*
X0048750Y0299500D03*
X0048750Y0364500D03*
X0048750Y0386500D03*
X0110750Y0386500D03*
X0110750Y0364500D03*
X0172750Y0364500D03*
X0172750Y0386500D03*
X0234750Y0386500D03*
X0234750Y0364500D03*
X0296750Y0364500D03*
X0296750Y0386500D03*
X0358750Y0386500D03*
X0358750Y0364500D03*
X0420750Y0364500D03*
X0420750Y0386500D03*
X0482750Y0386500D03*
X0482750Y0364500D03*
X0544750Y0364500D03*
X0544750Y0386500D03*
X0606750Y0386500D03*
X0606750Y0364500D03*
X0668750Y0364500D03*
X0668750Y0386500D03*
X0730750Y0386500D03*
X0730750Y0364500D03*
X0792750Y0364500D03*
X0792750Y0386500D03*
X0854750Y0386500D03*
X0854750Y0364500D03*
X0916750Y0364500D03*
X0916750Y0386500D03*
X0916750Y0451500D03*
X0854750Y0451500D03*
X0792750Y0451500D03*
X0730750Y0451500D03*
X0668750Y0451500D03*
X0606750Y0451500D03*
X0544750Y0451500D03*
X0482750Y0451500D03*
X0420750Y0451500D03*
X0358750Y0451500D03*
X0296750Y0451500D03*
X0234750Y0451500D03*
X0172750Y0451500D03*
X0110750Y0451500D03*
X0048750Y0451500D03*
D13*
X0083750Y0444000D03*
X0083750Y0434000D03*
X0083750Y0424000D03*
X0083750Y0414000D03*
X0083750Y0404000D03*
X0083750Y0394000D03*
X0145750Y0394000D03*
X0145750Y0404000D03*
X0145750Y0414000D03*
X0145750Y0424000D03*
X0145750Y0434000D03*
X0145750Y0444000D03*
X0207750Y0444000D03*
X0207750Y0434000D03*
X0207750Y0424000D03*
X0207750Y0414000D03*
X0207750Y0404000D03*
X0207750Y0394000D03*
X0269750Y0394000D03*
X0269750Y0404000D03*
X0269750Y0414000D03*
X0269750Y0424000D03*
X0269750Y0434000D03*
X0269750Y0444000D03*
X0331750Y0444000D03*
X0331750Y0434000D03*
X0331750Y0424000D03*
X0331750Y0414000D03*
X0331750Y0404000D03*
X0331750Y0394000D03*
X0393750Y0394000D03*
X0393750Y0404000D03*
X0393750Y0414000D03*
X0393750Y0424000D03*
X0393750Y0434000D03*
X0393750Y0444000D03*
X0455750Y0444000D03*
X0455750Y0434000D03*
X0455750Y0424000D03*
X0455750Y0414000D03*
X0455750Y0404000D03*
X0455750Y0394000D03*
X0517750Y0394000D03*
X0517750Y0404000D03*
X0517750Y0414000D03*
X0517750Y0424000D03*
X0517750Y0434000D03*
X0517750Y0444000D03*
X0579750Y0444000D03*
X0579750Y0434000D03*
X0579750Y0424000D03*
X0579750Y0414000D03*
X0579750Y0404000D03*
X0579750Y0394000D03*
X0641750Y0394000D03*
X0641750Y0404000D03*
X0641750Y0414000D03*
X0641750Y0424000D03*
X0641750Y0434000D03*
X0641750Y0444000D03*
X0703750Y0444000D03*
X0703750Y0434000D03*
X0703750Y0424000D03*
X0703750Y0414000D03*
X0703750Y0404000D03*
X0703750Y0394000D03*
X0765750Y0394000D03*
X0765750Y0404000D03*
X0765750Y0414000D03*
X0765750Y0424000D03*
X0765750Y0434000D03*
X0765750Y0444000D03*
X0827750Y0444000D03*
X0827750Y0434000D03*
X0827750Y0424000D03*
X0827750Y0414000D03*
X0827750Y0404000D03*
X0827750Y0394000D03*
X0889750Y0394000D03*
X0889750Y0404000D03*
X0889750Y0414000D03*
X0889750Y0424000D03*
X0889750Y0434000D03*
X0889750Y0444000D03*
X0951750Y0444000D03*
X0951750Y0434000D03*
X0951750Y0424000D03*
X0951750Y0414000D03*
X0951750Y0404000D03*
X0951750Y0394000D03*
X0951750Y0357000D03*
X0951750Y0347000D03*
X0951750Y0337000D03*
X0951750Y0327000D03*
X0951750Y0317000D03*
X0951750Y0307000D03*
X0889750Y0307000D03*
X0889750Y0317000D03*
X0889750Y0327000D03*
X0889750Y0337000D03*
X0889750Y0347000D03*
X0889750Y0357000D03*
X0827750Y0357000D03*
X0827750Y0347000D03*
X0827750Y0337000D03*
X0827750Y0327000D03*
X0827750Y0317000D03*
X0827750Y0307000D03*
X0765750Y0307000D03*
X0765750Y0317000D03*
X0765750Y0327000D03*
X0765750Y0337000D03*
X0765750Y0347000D03*
X0765750Y0357000D03*
X0703750Y0357000D03*
X0703750Y0347000D03*
X0703750Y0337000D03*
X0703750Y0327000D03*
X0703750Y0317000D03*
X0703750Y0307000D03*
X0641750Y0307000D03*
X0641750Y0317000D03*
X0641750Y0327000D03*
X0641750Y0337000D03*
X0641750Y0347000D03*
X0641750Y0357000D03*
X0579750Y0357000D03*
X0579750Y0347000D03*
X0579750Y0337000D03*
X0579750Y0327000D03*
X0579750Y0317000D03*
X0579750Y0307000D03*
X0517750Y0307000D03*
X0517750Y0317000D03*
X0517750Y0327000D03*
X0517750Y0337000D03*
X0517750Y0347000D03*
X0517750Y0357000D03*
X0455750Y0357000D03*
X0455750Y0347000D03*
X0455750Y0337000D03*
X0455750Y0327000D03*
X0455750Y0317000D03*
X0455750Y0307000D03*
X0393750Y0307000D03*
X0393750Y0317000D03*
X0393750Y0327000D03*
X0393750Y0337000D03*
X0393750Y0347000D03*
X0393750Y0357000D03*
X0331750Y0357000D03*
X0331750Y0347000D03*
X0331750Y0337000D03*
X0331750Y0327000D03*
X0331750Y0317000D03*
X0331750Y0307000D03*
X0269750Y0307000D03*
X0269750Y0317000D03*
X0269750Y0327000D03*
X0269750Y0337000D03*
X0269750Y0347000D03*
X0269750Y0357000D03*
X0207750Y0357000D03*
X0207750Y0347000D03*
X0207750Y0337000D03*
X0207750Y0327000D03*
X0207750Y0317000D03*
X0207750Y0307000D03*
X0145750Y0307000D03*
X0145750Y0317000D03*
X0145750Y0327000D03*
X0145750Y0337000D03*
X0145750Y0347000D03*
X0145750Y0357000D03*
X0083750Y0357000D03*
X0083750Y0347000D03*
X0083750Y0337000D03*
X0083750Y0327000D03*
X0083750Y0317000D03*
X0083750Y0307000D03*
X0083750Y0270000D03*
X0083750Y0260000D03*
X0083750Y0250000D03*
X0083750Y0240000D03*
X0083750Y0230000D03*
X0083750Y0220000D03*
X0145750Y0220000D03*
X0145750Y0230000D03*
X0145750Y0240000D03*
X0145750Y0250000D03*
X0145750Y0260000D03*
X0145750Y0270000D03*
X0207750Y0270000D03*
X0207750Y0260000D03*
X0207750Y0250000D03*
X0207750Y0240000D03*
X0207750Y0230000D03*
X0207750Y0220000D03*
X0269750Y0220000D03*
X0269750Y0230000D03*
X0269750Y0240000D03*
X0269750Y0250000D03*
X0269750Y0260000D03*
X0269750Y0270000D03*
X0331750Y0270000D03*
X0331750Y0260000D03*
X0331750Y0250000D03*
X0331750Y0240000D03*
X0331750Y0230000D03*
X0331750Y0220000D03*
X0393750Y0220000D03*
X0393750Y0230000D03*
X0393750Y0240000D03*
X0393750Y0250000D03*
X0393750Y0260000D03*
X0393750Y0270000D03*
X0455750Y0270000D03*
X0455750Y0260000D03*
X0455750Y0250000D03*
X0455750Y0240000D03*
X0455750Y0230000D03*
X0455750Y0220000D03*
X0517750Y0220000D03*
X0517750Y0230000D03*
X0517750Y0240000D03*
X0517750Y0250000D03*
X0517750Y0260000D03*
X0517750Y0270000D03*
X0579750Y0270000D03*
X0579750Y0260000D03*
X0579750Y0250000D03*
X0579750Y0240000D03*
X0579750Y0230000D03*
X0579750Y0220000D03*
X0641750Y0220000D03*
X0641750Y0230000D03*
X0641750Y0240000D03*
X0641750Y0250000D03*
X0641750Y0260000D03*
X0641750Y0270000D03*
X0703750Y0270000D03*
X0703750Y0260000D03*
X0703750Y0250000D03*
X0703750Y0240000D03*
X0703750Y0230000D03*
X0703750Y0220000D03*
X0765750Y0220000D03*
X0765750Y0230000D03*
X0765750Y0240000D03*
X0765750Y0250000D03*
X0765750Y0260000D03*
X0765750Y0270000D03*
X0827750Y0270000D03*
X0827750Y0260000D03*
X0827750Y0250000D03*
X0827750Y0240000D03*
X0827750Y0230000D03*
X0827750Y0220000D03*
X0889750Y0220000D03*
X0889750Y0230000D03*
X0889750Y0240000D03*
X0889750Y0250000D03*
X0889750Y0260000D03*
X0889750Y0270000D03*
X0951750Y0270000D03*
X0951750Y0260000D03*
X0951750Y0250000D03*
X0951750Y0240000D03*
X0951750Y0230000D03*
X0951750Y0220000D03*
X0951750Y0183000D03*
X0951750Y0173000D03*
X0951750Y0163000D03*
X0951750Y0153000D03*
X0951750Y0143000D03*
X0951750Y0133000D03*
X0889750Y0133000D03*
X0889750Y0143000D03*
X0889750Y0153000D03*
X0889750Y0163000D03*
X0889750Y0173000D03*
X0889750Y0183000D03*
X0827750Y0183000D03*
X0827750Y0173000D03*
X0827750Y0163000D03*
X0827750Y0153000D03*
X0827750Y0143000D03*
X0827750Y0133000D03*
X0765750Y0133000D03*
X0765750Y0143000D03*
X0765750Y0153000D03*
X0765750Y0163000D03*
X0765750Y0173000D03*
X0765750Y0183000D03*
X0703750Y0183000D03*
X0703750Y0173000D03*
X0703750Y0163000D03*
X0703750Y0153000D03*
X0703750Y0143000D03*
X0703750Y0133000D03*
X0641750Y0133000D03*
X0641750Y0143000D03*
X0641750Y0153000D03*
X0641750Y0163000D03*
X0641750Y0173000D03*
X0641750Y0183000D03*
X0579750Y0183000D03*
X0579750Y0173000D03*
X0579750Y0163000D03*
X0579750Y0153000D03*
X0579750Y0143000D03*
X0579750Y0133000D03*
X0517750Y0133000D03*
X0517750Y0143000D03*
X0517750Y0153000D03*
X0517750Y0163000D03*
X0517750Y0173000D03*
X0517750Y0183000D03*
X0455750Y0183000D03*
X0455750Y0173000D03*
X0455750Y0163000D03*
X0455750Y0153000D03*
X0455750Y0143000D03*
X0455750Y0133000D03*
X0393750Y0133000D03*
X0393750Y0143000D03*
X0393750Y0153000D03*
X0393750Y0163000D03*
X0393750Y0173000D03*
X0393750Y0183000D03*
X0331750Y0183000D03*
X0331750Y0173000D03*
X0331750Y0163000D03*
X0331750Y0153000D03*
X0331750Y0143000D03*
X0331750Y0133000D03*
X0269750Y0133000D03*
X0269750Y0143000D03*
X0269750Y0153000D03*
X0269750Y0163000D03*
X0269750Y0173000D03*
X0269750Y0183000D03*
X0207750Y0183000D03*
X0207750Y0173000D03*
X0207750Y0163000D03*
X0207750Y0153000D03*
X0207750Y0143000D03*
X0207750Y0133000D03*
X0145750Y0133000D03*
X0145750Y0143000D03*
X0145750Y0153000D03*
X0145750Y0163000D03*
X0145750Y0173000D03*
X0145750Y0183000D03*
X0083750Y0183000D03*
X0083750Y0173000D03*
X0083750Y0163000D03*
X0083750Y0153000D03*
X0083750Y0143000D03*
X0083750Y0133000D03*
X0083750Y0096000D03*
X0083750Y0086000D03*
X0083750Y0076000D03*
X0083750Y0066000D03*
X0083750Y0056000D03*
X0083750Y0046000D03*
X0145750Y0046000D03*
X0145750Y0056000D03*
X0145750Y0066000D03*
X0145750Y0076000D03*
X0145750Y0086000D03*
X0145750Y0096000D03*
X0207750Y0096000D03*
X0207750Y0086000D03*
X0207750Y0076000D03*
X0207750Y0066000D03*
X0207750Y0056000D03*
X0207750Y0046000D03*
X0269750Y0046000D03*
X0269750Y0056000D03*
X0269750Y0066000D03*
X0269750Y0076000D03*
X0269750Y0086000D03*
X0269750Y0096000D03*
X0331750Y0096000D03*
X0331750Y0086000D03*
X0331750Y0076000D03*
X0331750Y0066000D03*
X0331750Y0056000D03*
X0331750Y0046000D03*
X0393750Y0046000D03*
X0393750Y0056000D03*
X0393750Y0066000D03*
X0393750Y0076000D03*
X0393750Y0086000D03*
X0393750Y0096000D03*
X0455750Y0096000D03*
X0455750Y0086000D03*
X0455750Y0076000D03*
X0455750Y0066000D03*
X0455750Y0056000D03*
X0455750Y0046000D03*
X0517750Y0046000D03*
X0517750Y0056000D03*
X0517750Y0066000D03*
X0517750Y0076000D03*
X0517750Y0086000D03*
X0517750Y0096000D03*
X0579750Y0096000D03*
X0579750Y0086000D03*
X0579750Y0076000D03*
X0579750Y0066000D03*
X0579750Y0056000D03*
X0579750Y0046000D03*
X0641750Y0046000D03*
X0641750Y0056000D03*
X0641750Y0066000D03*
X0641750Y0076000D03*
X0641750Y0086000D03*
X0641750Y0096000D03*
X0703750Y0096000D03*
X0703750Y0086000D03*
X0703750Y0076000D03*
X0703750Y0066000D03*
X0703750Y0056000D03*
X0703750Y0046000D03*
X0765750Y0046000D03*
X0765750Y0056000D03*
X0765750Y0066000D03*
X0765750Y0076000D03*
X0765750Y0086000D03*
X0765750Y0096000D03*
X0827750Y0096000D03*
X0827750Y0086000D03*
X0827750Y0076000D03*
X0827750Y0066000D03*
X0827750Y0056000D03*
X0827750Y0046000D03*
X0889750Y0046000D03*
X0889750Y0056000D03*
X0889750Y0066000D03*
X0889750Y0076000D03*
X0889750Y0086000D03*
X0889750Y0096000D03*
X0951750Y0096000D03*
X0951750Y0086000D03*
X0951750Y0076000D03*
X0951750Y0066000D03*
X0951750Y0056000D03*
X0951750Y0046000D03*
M02*
